<svg width="20" height="22" viewBox="0 0 20 22" fill="none" xmlns="http://www.w3.org/2000/svg">
<path d="M13.7095 11.7096C14.6899 10.9383 15.4055 9.88056 15.7567 8.68358C16.108 7.4866 16.0774 6.2099 15.6693 5.03111C15.2612 3.85231 14.4958 2.83003 13.4796 2.10649C12.4634 1.38296 11.247 0.994141 9.99951 0.994141C8.75206 0.994141 7.53562 1.38296 6.51944 2.10649C5.50325 2.83003 4.73785 3.85231 4.32972 5.03111C3.92159 6.2099 3.89102 7.4866 4.24227 8.68358C4.59352 9.88056 5.30912 10.9383 6.28951 11.7096C4.60959 12.3827 3.1438 13.499 2.0484 14.9396C0.953007 16.3801 0.269071 18.0909 0.0695084 19.8896C0.055063 20.021 0.0666249 20.1538 0.103534 20.2807C0.140443 20.4076 0.201976 20.5259 0.28462 20.629C0.451527 20.8371 0.694292 20.9705 0.959509 20.9996C1.22473 21.0288 1.49067 20.9514 1.69883 20.7845C1.907 20.6176 2.04033 20.3749 2.06951 20.1096C2.28909 18.1548 3.2212 16.3495 4.68773 15.0384C6.15426 13.7274 8.05241 13.0027 10.0195 13.0027C11.9866 13.0027 13.8848 13.7274 15.3513 15.0384C16.8178 16.3495 17.7499 18.1548 17.9695 20.1096C17.9967 20.3554 18.1139 20.5823 18.2986 20.7467C18.4833 20.911 18.7223 21.0011 18.9695 20.9996H19.0795C19.3416 20.9695 19.5812 20.8369 19.7461 20.6309C19.9109 20.4248 19.9876 20.162 19.9595 19.8996C19.759 18.0958 19.0714 16.3806 17.9704 14.9378C16.8693 13.4951 15.3964 12.3791 13.7095 11.7096ZM9.99951 10.9996C9.20838 10.9996 8.43503 10.765 7.77723 10.3255C7.11943 9.88599 6.60674 9.26128 6.30399 8.53037C6.00124 7.79947 5.92203 6.9952 6.07637 6.21928C6.23071 5.44335 6.61167 4.73062 7.17108 4.17121C7.73049 3.6118 8.44322 3.23084 9.21915 3.0765C9.99507 2.92216 10.7993 3.00137 11.5302 3.30412C12.2611 3.60687 12.8859 4.11956 13.3254 4.77736C13.7649 5.43515 13.9995 6.20851 13.9995 6.99964C13.9995 8.0605 13.5781 9.07792 12.8279 9.82807C12.0778 10.5782 11.0604 10.9996 9.99951 10.9996Z" fill="white"/>
</svg>
