<svg width="21" height="21" viewBox="0 0 21 21" fill="none" xmlns="http://www.w3.org/2000/svg">
<path d="M20.7104 19.2894L17.0004 15.6094C18.4405 13.8138 19.1379 11.5347 18.9492 9.24072C18.7605 6.94672 17.7001 4.8122 15.9859 3.27606C14.2718 1.73992 12.0342 0.918926 9.73332 0.981887C7.43243 1.04485 5.24312 1.98698 3.61554 3.61456C1.98795 5.24214 1.04582 7.43146 0.982863 9.73234C0.919903 12.0332 1.7409 14.2708 3.27704 15.9849C4.81318 17.6991 6.9477 18.7595 9.24169 18.9482C11.5357 19.1369 13.8148 18.4395 15.6104 16.9994L19.2904 20.6794C19.3834 20.7731 19.494 20.8475 19.6158 20.8983C19.7377 20.9491 19.8684 20.9752 20.0004 20.9752C20.1324 20.9752 20.2631 20.9491 20.385 20.8983C20.5068 20.8475 20.6174 20.7731 20.7104 20.6794C20.8906 20.493 20.9914 20.2438 20.9914 19.9844C20.9914 19.7251 20.8906 19.4759 20.7104 19.2894ZM10.0004 16.9994C8.61593 16.9994 7.26255 16.5889 6.1114 15.8197C4.96026 15.0505 4.06305 13.9573 3.53324 12.6782C3.00342 11.3991 2.8648 9.99165 3.1349 8.63379C3.40499 7.27592 4.07168 6.02864 5.05065 5.04967C6.02961 4.0707 7.2769 3.40402 8.63476 3.13392C9.99263 2.86382 11.4001 3.00245 12.6792 3.53226C13.9583 4.06207 15.0515 4.95928 15.8207 6.11042C16.5899 7.26157 17.0004 8.61495 17.0004 9.99942C17.0004 11.8559 16.2629 13.6364 14.9501 14.9492C13.6374 16.2619 11.8569 16.9994 10.0004 16.9994Z" fill="white"/>
</svg>
