<svg width="20" height="20" viewBox="0 0 20 20" fill="none" xmlns="http://www.w3.org/2000/svg">
<path d="M12.3356 0.77832H9.99984V2.23816H11.6057V4.98754C11.6057 7.40238 9.64094 9.3671 7.22609 9.3671C4.81125 9.3671 2.84656 7.40242 2.84656 4.98758V2.23816H4.40375V0.77832H2.11664C1.71348 0.77832 1.38672 1.10508 1.38672 1.50824V4.98758C1.38672 8.20753 4.00617 10.827 7.22613 10.827C10.4461 10.827 13.0655 8.20753 13.0655 4.98758V1.50824C13.0655 1.10508 12.7388 0.77832 12.3356 0.77832Z" fill="#0092FF"/>
<path d="M15.1825 11.4359V14.8909C15.1825 16.9034 13.5453 18.5406 11.5328 18.5406C9.52041 18.5406 7.88318 16.9034 7.88318 14.8909V10.1221H6.42334V14.8909C6.42334 17.7082 8.71529 20.0004 11.5328 20.0004C14.3501 20.0004 16.6423 17.7082 16.6423 14.8909V11.4359H15.1825Z" fill="#0092FF"/>
<path d="M15.9124 6.71484C14.4229 6.71484 13.2114 7.92629 13.2114 9.41559C13.2114 10.9046 14.4229 12.1163 15.9122 12.1163C17.4015 12.1163 18.6129 10.9046 18.6131 9.41559C18.6131 7.92629 17.4015 6.71484 15.9124 6.71484ZM15.9122 10.6565C15.2278 10.6565 14.671 10.0998 14.671 9.41562C14.671 8.73145 15.2277 8.17477 15.9122 8.17477C16.5963 8.17477 17.153 8.73145 17.153 9.41562C17.153 10.0998 16.5963 10.6565 15.9122 10.6565Z" fill="#0092FF"/>
<path d="M4.37933 0C3.97617 0 3.64941 0.326758 3.64941 0.729922V2.28711C3.64941 2.69027 3.97617 3.01703 4.37933 3.01703C4.78249 3.01703 5.10925 2.69027 5.10925 2.28711V0.729922C5.10925 0.326758 4.78249 0 4.37933 0Z" fill="#0092FF"/>
<path d="M10.0243 0C9.62119 0 9.29443 0.326758 9.29443 0.729922V2.28711C9.29443 2.69027 9.62119 3.01703 10.0243 3.01703C10.4275 3.01703 10.7543 2.69027 10.7543 2.28711V0.729922C10.7543 0.326758 10.4275 0 10.0243 0Z" fill="#0092FF"/>
</svg>
