<svg width="44" height="44" viewBox="0 0 44 44" fill="none" xmlns="http://www.w3.org/2000/svg">
<path d="M16.7751 10.4503C16.7487 10.3319 16.7193 10.2124 16.6897 10.0923C16.5956 9.71071 16.5001 9.32355 16.5001 8.94699C16.4069 8.53343 16.1734 8.16492 15.8391 7.90419C15.5048 7.64346 15.0905 7.50663 14.6667 7.51699L16.7751 10.4503ZM16.7751 10.4503C16.987 11.4107 17.2688 12.3544 17.6184 13.2737L16.7751 10.4503ZM38.3351 21.2853H38.4817C38.9407 21.2872 39.3836 21.1168 39.7231 20.8079C40.0625 20.4991 40.2738 20.0741 40.3151 19.617M38.3351 21.2853L38.3783 20.7872C38.3717 20.7866 38.3651 20.786 38.3585 20.7853M38.3351 21.2853C37.8515 21.2433 37.4044 21.0113 37.0916 20.6402C36.7789 20.269 36.6261 19.789 36.6667 19.3053L38.3351 21.2853ZM38.3585 20.7853H38.4817H38.4838C38.8175 20.7867 39.1397 20.6628 39.3866 20.4381C39.6283 20.2182 39.7806 19.9172 39.8151 19.5927M38.3585 20.7853C38.0144 20.7503 37.6972 20.5828 37.474 20.318C37.2465 20.0481 37.1354 19.6989 37.165 19.3472L37.1667 19.3263V19.3053V19.3034V19.3015V19.2995V19.2976V19.2957V19.2937V19.2918V19.2899V19.2879V19.286V19.2841V19.2822V19.2802V19.2783V19.2764V19.2744V19.2725V19.2706V19.2687V19.2667V19.2648V19.2629V19.261V19.259V19.2571V19.2552V19.2533V19.2513V19.2494V19.2475V19.2456V19.2437V19.2417V19.2398V19.2379V19.236V19.2341V19.2321V19.2302V19.2283V19.2264V19.2245V19.2225V19.2206V19.2187V19.2168V19.2149V19.213V19.211V19.2091V19.2072V19.2053V19.2034V19.2015V19.1996V19.1977V19.1957V19.1938V19.1919V19.19V19.1881V19.1862V19.1843V19.1824V19.1805V19.1785V19.1766V19.1747V19.1728V19.1709V19.169V19.1671V19.1652V19.1633V19.1614V19.1595V19.1576V19.1557V19.1537V19.1518V19.1499V19.148V19.1461V19.1442V19.1423V19.1404V19.1385V19.1366V19.1347V19.1328V19.1309V19.129V19.1271V19.1252V19.1233V19.1214V19.1195V19.1176V19.1157V19.1138V19.1119V19.11V19.1081V19.1062V19.1043V19.1024V19.1005V19.0986V19.0967V19.0948V19.0929V19.091V19.0891V19.0872V19.0853V19.0834V19.0815V19.0796V19.0777V19.0758V19.0739V19.0721V19.0702V19.0683V19.0664V19.0645V19.0626V19.0607V19.0588V19.0569V19.055V19.0531V19.0512V19.0493V19.0474V19.0455V19.0437V19.0418V19.0399V19.038V19.0361V19.0342V19.0323V19.0304V19.0285V19.0266V19.0248V19.0229V19.021V19.0191V19.0172V19.0153V19.0134V19.0115V19.0096V19.0078V19.0059V19.004V19.0021V19.0002V18.9983V18.9964V18.9945V18.9927V18.9908V18.9889V18.987V18.9851V18.9832V18.9813V18.9794V18.9776V18.9757V18.9738V18.9719V18.97V18.9681V18.9663V18.9644V18.9625V18.9606V18.9587V18.9568V18.9549V18.9531V18.9512V18.9493V18.9474V18.9455V18.9436V18.9418V18.9399V18.938V18.9361V18.9342V18.9323V18.9305V18.9286V18.9267V18.9248V18.9229V18.921V18.9192V18.9173V18.9154V18.9135V18.9116V18.9098V18.9079V18.906V18.9041V18.9022V18.9003V18.8985V18.8966V18.8947V18.8928V18.8909V18.8891V18.8872V18.8853V18.8834V18.8815V18.8797V18.8778V18.8759V18.874V18.8721V18.8703V18.8684V18.8665V18.8646V18.8627V18.8609V18.859V18.8571V18.8552V18.8533V18.8514V18.8496V18.8477V18.8458V18.8439V18.842V18.8402V18.8383V18.8364V18.8345V18.8326V18.8308V18.8289V18.827V18.8251V18.8232V18.8214V18.8195V18.8176V18.8157V18.8139V18.812V18.8101V18.8082V18.8063V18.8045V18.8026V18.8007V18.7988V18.7969V18.7951V18.7932V18.7913V18.7894V18.7875V18.7857V18.7838V18.7819V18.78V18.7781V18.7762V18.7744V18.7725V18.7706V18.7687V18.7668V18.765V18.7631V18.7612V18.7593V18.7574V18.7556V18.7537V18.7518V18.7499V18.748V18.7462V18.7443V18.7424V18.7405V18.7386V18.7368V18.7349V18.733V18.7311V18.7292V18.7273V18.7255V18.7236V18.7217V18.7198V18.7179V18.7161V18.7142V18.7123V18.7104V18.7085V18.7066V18.7048V18.7029V18.701V18.6991V18.6972V18.6953V18.6935V18.6916V18.6897V18.6878V18.6859V18.684V18.6822V18.6803V18.6784V18.6765V18.6746V18.6727V18.6708V18.669V18.6671V18.6652V18.6633V18.6614V18.6595V18.6576V18.6558V18.6539V18.652V18.6501V18.6482V18.6463V18.6444V18.6426V18.6407V18.6388V18.6369V18.635V18.6331V18.6312V18.6293V18.6275V18.6256V18.6237V18.6218V18.6199V18.618V18.6161V18.6142V18.6123V18.6104V18.6086V18.6067V18.6048V18.6029V18.601V18.5991V18.5972V18.5953V18.5934V18.5915V18.5896V18.5878V18.5859V18.584V18.5821V18.5802V18.5783V18.5764V18.5745V18.5726V18.5707V18.5688V18.5669V18.565V18.5631V18.5612V18.5593V18.5575V18.5556V18.5537V18.5518V18.5499V18.548V18.5461V18.5442V18.5423V18.5404V18.5385V18.5366V18.5347V18.5328V18.5309V18.529V18.5271V18.5252V18.5233V18.5214V18.5195V18.5176V18.5157V18.5138V18.5119V18.51V18.5081V18.5062V18.5043V18.5024V18.5005V18.4986V18.4967V18.4948V18.4929V18.491V18.489V18.4871V18.4852V18.4833V18.4814V18.4795V18.4776V18.4757V18.4738V18.4719V18.47V18.4681V18.4662V18.4643V18.4623V18.4604V18.4585V18.4566V18.4547V18.4528V18.4509V18.449V18.4471V18.4452V18.4432V18.4413V18.4394V18.4375V18.4356V18.4337V18.4318V18.4298V18.4279V18.426V18.4241V18.4222V18.4203V18.4184V18.4164V18.4145V18.4126V18.4107V18.4088V18.4068V18.4049V18.403V18.4011V18.3992V18.3972V18.3953V18.3934V18.3915V18.3896V18.3876V18.3857V18.3838V18.3819V18.3799V18.378V18.3761V18.3742V18.3722V18.3703V18.3684V18.3665V18.3645V18.3626V18.3607V18.3588V18.3568V18.3549V18.353V18.351V18.3491V18.3472V18.3453V18.3433V18.3414V18.3395V18.3375V18.3356V18.3337C37.1667 15.2837 35.9551 12.3586 33.7985 10.2019C31.6418 8.04526 28.7167 6.83366 25.6667 6.83366H24.6951H24.6739L24.6527 6.83545C24.2986 6.86555 23.9471 6.75375 23.6754 6.52465C23.4037 6.29555 23.2342 5.96791 23.2041 5.61381C23.174 5.25971 23.2858 4.90816 23.5149 4.63649C23.7398 4.36981 24.0597 4.20155 24.4063 4.16699H24.4081H24.4106H24.4131H24.4156H24.418H24.4205H24.423H24.4255H24.4279H24.4304H24.4329H24.4354H24.4379H24.4403H24.4428H24.4453H24.4478H24.4503H24.4527H24.4552H24.4577H24.4602H24.4627H24.4652H24.4676H24.4701H24.4726H24.4751H24.4776H24.4801H24.4825H24.485H24.4875H24.49H24.4925H24.495H24.4975H24.5H24.5024H24.5049H24.5074H24.5099H24.5124H24.5149H24.5174H24.5199H24.5224H24.5249H24.5274H24.5298H24.5323H24.5348H24.5373H24.5398H24.5423H24.5448H24.5473H24.5498H24.5523H24.5548H24.5573H24.5598H24.5623H24.5648H24.5673H24.5698H24.5723H24.5748H24.5773H24.5798H24.5823H24.5848H24.5873H24.5898H24.5923H24.5948H24.5973H24.5998H24.6023H24.6048H24.6073H24.6098H24.6123H24.6148H24.6173H24.6198H24.6223H24.6248H24.6273H24.6298H24.6323H24.6348H24.6373H24.6398H24.6423H24.6448H24.6473H24.6498H24.6523H24.6548H24.6574H24.6599H24.6624H24.6649H24.6674H24.6699H24.6724H24.6749H24.6774H24.6799H24.6824H24.6849H24.6875H24.69H24.6925H24.695H24.6975H24.7H24.7025H24.705H24.7075H24.7101H24.7126H24.7151H24.7176H24.7201H24.7226H24.7251H24.7276H24.7302H24.7327H24.7352H24.7377H24.7402H24.7427H24.7452H24.7477H24.7503H24.7528H24.7553H24.7578H24.7603H24.7628H24.7654H24.7679H24.7704H24.7729H24.7754H24.7779H24.7804H24.783H24.7855H24.788H24.7905H24.793H24.7956H24.7981H24.8006H24.8031H24.8056H24.8081H24.8107H24.8132H24.8157H24.8182H24.8207H24.8233H24.8258H24.8283H24.8308H24.8333H24.8359H24.8384H24.8409H24.8434H24.8459H24.8485H24.851H24.8535H24.856H24.8585H24.8611H24.8636H24.8661H24.8686H24.8711H24.8737H24.8762H24.8787H24.8812H24.8837H24.8863H24.8888H24.8913H24.8938H24.8964H24.8989H24.9014H24.9039H24.9064H24.909H24.9115H24.914H24.9165H24.9191H24.9216H24.9241H24.9266H24.9292H24.9317H24.9342H24.9367H24.9392H24.9418H24.9443H24.9468H24.9493H24.9519H24.9544H24.9569H24.9594H24.962H24.9645H24.967H24.9695H24.9721H24.9746H24.9771H24.9796H24.9822H24.9847H24.9872H24.9897H24.9923H24.9948H24.9973H24.9998H25.0023H25.0049H25.0074H25.0099H25.0124H25.015H25.0175H25.02H25.0225H25.0251H25.0276H25.0301H25.0326H25.0352H25.0377H25.0402H25.0427H25.0453H25.0478H25.0503H25.0528H25.0554H25.0579H25.0604H25.0629H25.0655H25.068H25.0705H25.073H25.0756H25.0781H25.0806H25.0831H25.0856H25.0882H25.0907H25.0932H25.0957H25.0983H25.1008H25.1033H25.1058H25.1084H25.1109H25.1134H25.1159H25.1185H25.121H25.1235H25.126H25.1285H25.1311H25.1336H25.1361H25.1386H25.1412H25.1437H25.1462H25.1487H25.1513H25.1538H25.1563H25.1588H25.1613H25.1639H25.1664H25.1689H25.1714H25.174H25.1765H25.179H25.1815H25.184H25.1866H25.1891H25.1916H25.1941H25.1966H25.1992H25.2017H25.2042H25.2067H25.2092H25.2118H25.2143H25.2168H25.2193H25.2218H25.2244H25.2269H25.2294H25.2319H25.2344H25.237H25.2395H25.242H25.2445H25.247H25.2495H25.2521H25.2546H25.2571H25.2596H25.2621H25.2647H25.2672H25.2697H25.2722H25.2747H25.2772H25.2798H25.2823H25.2848H25.2873H25.2898H25.2923H25.2948H25.2974H25.2999H25.3024H25.3049H25.3074H25.3099H25.3124H25.315H25.3175H25.32H25.3225H25.325H25.3275H25.33H25.3326H25.3351H25.3376H25.3401H25.3426H25.3451H25.3476H25.3501H25.3526H25.3552H25.3577H25.3602H25.3627H25.3652H25.3677H25.3702H25.3727H25.3752H25.3777H25.3802H25.3828H25.3853H25.3878H25.3903H25.3928H25.3953H25.3978H25.4003H25.4028H25.4053H25.4078H25.4103H25.4128H25.4153H25.4178H25.4203H25.4228H25.4254H25.4279H25.4304H25.4329H25.4354H25.4379H25.4404H25.4429H25.4454H25.4479H25.4504H25.4529H25.4554H25.4579H25.4604H25.4629H25.4654H25.4679H25.4704H25.4729H25.4754H25.4779H25.4804H25.4829H25.4854H25.4879H25.4904H25.4929H25.4953H25.4978H25.5003H25.5028H25.5053H25.5078H25.5103H25.5128H25.5153H25.5178H25.5203H25.5228H25.5253H25.5278H25.5303H25.5327H25.5352H25.5377H25.5402H25.5427H25.5452H25.5477H25.5502H25.5527H25.5552H25.5576H25.5601H25.5626H25.5651H25.5676H25.5701H25.5726H25.575H25.5775H25.58H25.5825H25.585H25.5875H25.5899H25.5924H25.5949H25.5974H25.5999H25.6024H25.6048H25.6073H25.6098H25.6123H25.6148H25.6172H25.6197H25.6222H25.6247H25.6272H25.6296H25.6321H25.6346H25.6371H25.6395H25.642H25.6445H25.647H25.6494H25.6519H25.6544H25.6568H25.6593H25.6618H25.6643H25.6664C29.4205 4.17177 33.0191 5.66638 35.672 8.32257C38.3249 10.9788 39.8151 14.5795 39.8151 18.3337V18.3361V18.3386V18.3411V18.3435V18.346V18.3485V18.351V18.3534V18.3559V18.3584V18.3609V18.3633V18.3658V18.3683V18.3708V18.3732V18.3757V18.3782V18.3807V18.3832V18.3856V18.3881V18.3906V18.3931V18.3956V18.398V18.4005V18.403V18.4055V18.408V18.4104V18.4129V18.4154V18.4179V18.4204V18.4229V18.4253V18.4278V18.4303V18.4328V18.4353V18.4378V18.4403V18.4428V18.4452V18.4477V18.4502V18.4527V18.4552V18.4577V18.4602V18.4627V18.4652V18.4676V18.4701V18.4726V18.4751V18.4776V18.4801V18.4826V18.4851V18.4876V18.4901V18.4926V18.4951V18.4976V18.5001V18.5025V18.505V18.5075V18.51V18.5125V18.515V18.5175V18.52V18.5225V18.525V18.5275V18.53V18.5325V18.535V18.5375V18.54V18.5425V18.545V18.5475V18.55V18.5525V18.555V18.5575V18.56V18.5625V18.565V18.5675V18.57V18.5725V18.575V18.5775V18.58V18.5826V18.5851V18.5876V18.5901V18.5926V18.5951V18.5976V18.6001V18.6026V18.6051V18.6076V18.6101V18.6126V18.6151V18.6176V18.6201V18.6227V18.6252V18.6277V18.6302V18.6327V18.6352V18.6377V18.6402V18.6427V18.6452V18.6478V18.6503V18.6528V18.6553V18.6578V18.6603V18.6628V18.6653V18.6678V18.6704V18.6729V18.6754V18.6779V18.6804V18.6829V18.6854V18.6879V18.6905V18.693V18.6955V18.698V18.7005V18.703V18.7055V18.7081V18.7106V18.7131V18.7156V18.7181V18.7206V18.7232V18.7257V18.7282V18.7307V18.7332V18.7357V18.7383V18.7408V18.7433V18.7458V18.7483V18.7508V18.7534V18.7559V18.7584V18.7609V18.7634V18.766V18.7685V18.771V18.7735V18.776V18.7785V18.7811V18.7836V18.7861V18.7886V18.7911V18.7937V18.7962V18.7987V18.8012V18.8038V18.8063V18.8088V18.8113V18.8138V18.8164V18.8189V18.8214V18.8239V18.8264V18.829V18.8315V18.834V18.8365V18.839V18.8416V18.8441V18.8466V18.8491V18.8517V18.8542V18.8567V18.8592V18.8618V18.8643V18.8668V18.8693V18.8718V18.8744V18.8769V18.8794V18.8819V18.8845V18.887V18.8895V18.892V18.8946V18.8971V18.8996V18.9021V18.9046V18.9072V18.9097V18.9122V18.9147V18.9173V18.9198V18.9223V18.9248V18.9274V18.9299V18.9324V18.9349V18.9375V18.94V18.9425V18.945V18.9476V18.9501V18.9526V18.9551V18.9577V18.9602V18.9627V18.9652V18.9678V18.9703V18.9728V18.9753V18.9778V18.9804V18.9829V18.9854V18.9879V18.9905V18.993V18.9955V18.998V19.0006V19.0031V19.0056V19.0081V19.0107V19.0132V19.0157V19.0182V19.0208V19.0233V19.0258V19.0283V19.0309V19.0334V19.0359V19.0384V19.041V19.0435V19.046V19.0485V19.051V19.0536V19.0561V19.0586V19.0611V19.0637V19.0662V19.0687V19.0712V19.0738V19.0763V19.0788V19.0813V19.0839V19.0864V19.0889V19.0914V19.0939V19.0965V19.099V19.1015V19.104V19.1066V19.1091V19.1116V19.1141V19.1166V19.1192V19.1217V19.1242V19.1267V19.1293V19.1318V19.1343V19.1368V19.1393V19.1419V19.1444V19.1469V19.1494V19.1519V19.1545V19.157V19.1595V19.162V19.1645V19.1671V19.1696V19.1721V19.1746V19.1771V19.1797V19.1822V19.1847V19.1872V19.1897V19.1922V19.1948V19.1973V19.1998V19.2023V19.2048V19.2074V19.2099V19.2124V19.2149V19.2174V19.2199V19.2225V19.225V19.2275V19.23V19.2325V19.235V19.2376V19.2401V19.2426V19.2451V19.2476V19.2501V19.2526V19.2552V19.2577V19.2602V19.2627V19.2652V19.2677V19.2702V19.2728V19.2753V19.2778V19.2803V19.2828V19.2853V19.2878V19.2903V19.2929V19.2954V19.2979V19.3004V19.3029V19.3054V19.3079V19.3104V19.3129V19.3154V19.318V19.3205V19.323V19.3255V19.328V19.3305V19.333V19.3355V19.338V19.3405V19.343V19.3455V19.3481V19.3506V19.3531V19.3556V19.3581V19.3606V19.3631V19.3656V19.3681V19.3706V19.3731V19.3756V19.3781V19.3806V19.3831V19.3856V19.3881V19.3906V19.3931V19.3956V19.3981V19.4006V19.4031V19.4056V19.4081V19.4106V19.4131V19.4156V19.4181V19.4206V19.4231V19.4256V19.4281V19.4306V19.4331V19.4356V19.4381V19.4406V19.4431V19.4456V19.4481V19.4506V19.4531V19.4556V19.4581V19.4606V19.4631V19.4656V19.4681V19.4705V19.473V19.4755V19.478V19.4805V19.483V19.4855V19.488V19.4905V19.493V19.4955V19.4979V19.5004V19.5029V19.5054V19.5079V19.5104V19.5129V19.5154V19.5178V19.5203V19.5228V19.5253V19.5278V19.5303V19.5328V19.5352V19.5377V19.5402V19.5427V19.5452V19.5477V19.5501V19.5526V19.5551V19.5576V19.5601V19.5625V19.565V19.5675V19.57V19.5725V19.5749V19.5774V19.5799V19.5824V19.5848V19.5873V19.5898V19.5923V19.5927M38.3585 20.7853L40.3151 19.617M39.8151 19.5927V19.5947V19.5972V19.5997V19.6022V19.6046V19.6071V19.6096V19.612V19.6145V19.617H40.3151M39.8151 19.5927C39.8158 19.5858 39.8165 19.5789 39.8171 19.572L40.3151 19.617M26.7584 26.0102L27.2248 26.2748L27.4561 25.791L27.8575 24.9519C27.8578 24.9512 27.8581 24.9506 27.8584 24.95C28.2022 24.2489 28.793 23.6995 29.5173 23.4075C30.2414 23.1155 31.0479 23.1013 31.7818 23.3677C32.5855 23.6689 33.4091 23.9141 34.2468 24.1014C34.3126 24.1164 34.3842 24.134 34.4601 24.1526C34.7729 24.2294 35.1607 24.3245 35.5321 24.333C36.6446 24.5625 37.6463 25.1641 38.3716 26.0394C39.1061 26.9256 39.5123 28.0381 39.5217 29.189V34.687V34.6876C39.5227 35.3922 39.3747 36.0891 39.0874 36.7324C38.8003 37.3755 38.3806 37.9507 37.8558 38.4203C36.9381 39.2379 35.7515 39.6888 34.5225 39.687L34.503 39.687L34.4836 39.6884C34.2754 39.7044 34.0662 39.7047 33.8579 39.6894C26.3419 38.7048 19.3601 35.2695 13.9938 29.9153C8.63623 24.5458 5.19984 17.5586 4.21753 10.0372L4.21754 10.0372L4.21712 10.0342C4.11921 9.31913 4.17727 8.59137 4.38729 7.90089C4.59723 7.21066 4.95406 6.57404 5.43327 6.03474C5.9029 5.50984 6.47813 5.09008 7.12128 4.80296C7.76467 4.51574 8.46149 4.36774 9.16608 4.36866H9.16674H14.6851V4.36871L14.6923 4.36861C15.8835 4.35129 17.0417 4.75983 17.9584 5.52067C18.8729 6.2797 19.487 7.33958 19.6909 8.51023C19.7474 8.92287 19.8227 9.35585 19.9175 9.77261C20.1072 10.6149 20.3521 11.4438 20.6506 12.2539C20.9174 12.9882 20.9034 13.7952 20.6112 14.5198C20.3197 15.2427 19.7719 15.8326 19.0727 16.1767L18.2358 16.5588L17.7392 16.7855L18.0085 17.2603C19.0392 19.0777 20.2968 20.7566 21.7511 22.2567L21.7565 22.2623L21.762 22.2676C23.2621 23.7219 24.941 24.9795 26.7584 26.0102ZM36.9834 34.8348L36.9834 34.827L36.9832 34.8191L36.8186 29.1667C36.8284 28.6323 36.6544 28.1105 36.3255 27.6888C35.9936 27.2634 35.5246 26.9661 34.9983 26.8475L34.9801 26.8435L34.9617 26.8407C34.476 26.7688 33.9762 26.6794 33.5158 26.5731L33.511 26.572C32.5495 26.3601 31.6031 26.0846 30.678 25.7472L30.2415 25.5881L30.0508 26.0118L28.8973 28.5751C28.8971 28.5756 28.8968 28.5761 28.8966 28.5767C28.7491 28.8967 28.481 29.1455 28.1507 29.2684L28.1428 29.2713L28.1351 29.2745C27.8138 29.4065 27.4539 29.4078 27.1318 29.2786C21.5956 26.6907 17.1447 22.2398 14.5568 16.7036C14.4276 16.3815 14.4289 16.0216 14.5609 15.7003L14.5641 15.6926L14.567 15.6847C14.6901 15.3539 14.9395 15.0854 15.2603 14.9381L15.2603 14.9381L15.2649 14.9359L17.8316 13.7259L18.2503 13.5286L18.0858 13.0959C17.7448 12.1994 17.47 11.2792 17.2633 10.3426L17.2632 10.3419C17.2303 10.1939 17.1964 10.0563 17.1645 9.92619C17.0751 9.56272 17.0001 9.25766 17.0001 8.94699V8.89139L16.9879 8.83714C16.8693 8.31078 16.572 7.84177 16.1466 7.50994C15.7229 7.17943 15.1981 7.00535 14.661 7.01699H9.16852C8.83968 7.01477 8.51407 7.08209 8.21306 7.21454L8.41443 7.67219L8.21306 7.21454C7.91178 7.3471 7.64196 7.5419 7.42132 7.78615C7.18874 8.04169 7.01581 8.34571 6.91504 8.67624C6.81458 9.00577 6.78833 9.35343 6.83817 9.69427C7.75523 16.6722 10.9499 23.1523 15.9265 28.1289L15.9277 28.1301C20.9 33.0684 27.3576 36.2355 34.3063 37.1439C34.6471 37.1937 34.9947 37.1675 35.3242 37.067L35.1783 36.5888L35.3242 37.067C35.6547 36.9662 35.9587 36.7933 36.2143 36.5607C36.4556 36.3427 36.6487 36.0767 36.7811 35.7797C36.9137 35.4823 36.9826 35.1604 36.9834 34.8348ZM30.2239 19.2765C29.9739 19.0264 29.8334 18.6873 29.8334 18.3337C29.8334 17.2286 29.3944 16.1688 28.613 15.3874C27.8316 14.606 26.7718 14.167 25.6667 14.167C25.3131 14.167 24.974 14.0265 24.7239 13.7765C24.4739 13.5264 24.3334 13.1873 24.3334 12.8337C24.3334 12.48 24.4739 12.1409 24.7239 11.8908C24.974 11.6408 25.3131 11.5003 25.6667 11.5003C27.479 11.5003 29.2171 12.2203 30.4986 13.5018C31.7801 14.7833 32.5001 16.5213 32.5001 18.3337C32.5001 18.6873 32.3596 19.0264 32.1095 19.2765C31.8595 19.5265 31.5204 19.667 31.1667 19.667C30.8131 19.667 30.474 19.5265 30.2239 19.2765Z" fill="#0092FF" stroke="#F7F7F7"/>
</svg>
