<svg width="20" height="20" viewBox="0 0 20 20" fill="none" xmlns="http://www.w3.org/2000/svg">
<path d="M15.8332 3.33366H14.1665V2.50033C14.1665 2.27931 14.0787 2.06735 13.9224 1.91107C13.7661 1.75479 13.5542 1.66699 13.3332 1.66699C13.1122 1.66699 12.9002 1.75479 12.7439 1.91107C12.5876 2.06735 12.4998 2.27931 12.4998 2.50033V3.33366H7.49984V2.50033C7.49984 2.27931 7.41204 2.06735 7.25576 1.91107C7.09948 1.75479 6.88752 1.66699 6.6665 1.66699C6.44549 1.66699 6.23353 1.75479 6.07725 1.91107C5.92097 2.06735 5.83317 2.27931 5.83317 2.50033V3.33366H4.1665C3.50346 3.33366 2.86758 3.59705 2.39874 4.06589C1.9299 4.53473 1.6665 5.17062 1.6665 5.83366V15.8337C1.6665 16.4967 1.9299 17.1326 2.39874 17.6014C2.86758 18.0703 3.50346 18.3337 4.1665 18.3337H15.8332C16.4962 18.3337 17.1321 18.0703 17.6009 17.6014C18.0698 17.1326 18.3332 16.4967 18.3332 15.8337V5.83366C18.3332 5.17062 18.0698 4.53473 17.6009 4.06589C17.1321 3.59705 16.4962 3.33366 15.8332 3.33366ZM16.6665 15.8337C16.6665 16.0547 16.5787 16.2666 16.4224 16.4229C16.2661 16.5792 16.0542 16.667 15.8332 16.667H4.1665C3.94549 16.667 3.73353 16.5792 3.57725 16.4229C3.42097 16.2666 3.33317 16.0547 3.33317 15.8337V10.0003H16.6665V15.8337ZM16.6665 8.33366H3.33317V5.83366C3.33317 5.61265 3.42097 5.40068 3.57725 5.2444C3.73353 5.08812 3.94549 5.00033 4.1665 5.00033H5.83317V5.83366C5.83317 6.05467 5.92097 6.26663 6.07725 6.42291C6.23353 6.5792 6.44549 6.66699 6.6665 6.66699C6.88752 6.66699 7.09948 6.5792 7.25576 6.42291C7.41204 6.26663 7.49984 6.05467 7.49984 5.83366V5.00033H12.4998V5.83366C12.4998 6.05467 12.5876 6.26663 12.7439 6.42291C12.9002 6.5792 13.1122 6.66699 13.3332 6.66699C13.5542 6.66699 13.7661 6.5792 13.9224 6.42291C14.0787 6.26663 14.1665 6.05467 14.1665 5.83366V5.00033H15.8332C16.0542 5.00033 16.2661 5.08812 16.4224 5.2444C16.5787 5.40068 16.6665 5.61265 16.6665 5.83366V8.33366Z" fill="white"/>
<path d="M9.1665 13.8281L11.9082 11.0781C12.0651 10.9212 12.2779 10.833 12.4998 10.833C12.7217 10.833 12.9346 10.9212 13.0915 11.0781C13.2484 11.235 13.3366 11.4478 13.3366 11.6697C13.3366 11.8917 13.2484 12.1045 13.0915 12.2614L9.75816 15.5947C9.68069 15.6729 9.58853 15.7349 9.48698 15.7772C9.38543 15.8195 9.27651 15.8412 9.1665 15.8412C9.05649 15.8412 8.94756 15.8195 8.84601 15.7772C8.74447 15.7349 8.6523 15.6729 8.57483 15.5947L6.90816 13.9281C6.75124 13.7712 6.66309 13.5583 6.66309 13.3364C6.66309 13.1145 6.75124 12.9017 6.90816 12.7447C7.06508 12.5878 7.27791 12.4997 7.49983 12.4997C7.72175 12.4997 7.93458 12.5878 8.0915 12.7447L9.1665 13.8281Z" fill="white"/>
</svg>
