<svg width="32" height="32" viewBox="0 0 32 32" fill="none" xmlns="http://www.w3.org/2000/svg">
<path d="M25.8802 18.3337C25.5869 18.3337 25.2802 18.2403 24.9869 18.1737C24.3933 18.0409 23.8097 17.8672 23.2402 17.6537C22.6217 17.4286 21.9418 17.4403 21.3313 17.6865C20.7209 17.9326 20.223 18.3958 19.9336 18.987L19.6402 19.6003C18.3453 18.8659 17.1491 17.9699 16.0802 16.9337C15.044 15.8648 14.148 14.6686 13.4136 13.3737L14.0269 13.0937C14.6181 12.8042 15.0813 12.3064 15.3274 11.6959C15.5736 11.0855 15.5853 10.4055 15.3602 9.78699C15.1485 9.21237 14.9748 8.62443 14.8402 8.02699C14.7736 7.73366 14.7202 7.42699 14.6802 7.13366C14.5183 6.19449 14.0264 5.34398 13.2931 4.73531C12.5597 4.12664 11.6332 3.7998 10.6802 3.81366H6.6669C6.10323 3.81292 5.54576 3.93132 5.03105 4.1611C4.51634 4.39088 4.05601 4.72686 3.68023 5.14699C3.29666 5.57853 3.01105 6.08799 2.84303 6.64037C2.67502 7.19275 2.62857 7.77496 2.7069 8.34699C3.43168 13.8965 5.96718 19.0519 9.92023 23.0137C13.882 26.9667 19.0374 29.5022 24.5869 30.227C24.76 30.2402 24.9338 30.2402 25.1069 30.227C26.0901 30.2284 27.0394 29.8677 27.7736 29.2137C28.1937 28.8379 28.5297 28.3775 28.7595 27.8628C28.9892 27.3481 29.1076 26.7907 29.1069 26.227V22.227C29.0997 21.3057 28.7747 20.4151 28.1868 19.7058C27.5989 18.9964 26.7842 18.5118 25.8802 18.3337ZM26.5336 26.3337C26.5331 26.5197 26.4937 26.7036 26.418 26.8736C26.3422 27.0435 26.2317 27.1957 26.0936 27.3203C25.9474 27.4535 25.7735 27.5524 25.5844 27.6101C25.3953 27.6677 25.1958 27.6826 25.0002 27.6537C20.0246 27.0038 15.4006 24.7363 11.8402 21.2003C8.27686 17.6369 5.9896 12.9968 5.33356 8.00033C5.3046 7.80477 5.31948 7.60522 5.37713 7.41613C5.43478 7.22703 5.53376 7.05312 5.6669 6.90699C5.79306 6.76719 5.9474 6.65571 6.11976 6.57987C6.29212 6.50403 6.47859 6.46556 6.6669 6.46699H10.6669C10.9751 6.45946 11.2764 6.55897 11.5195 6.74859C11.7626 6.93821 11.9325 7.20622 12.0002 7.50699C12.0002 7.86699 12.1202 8.24033 12.2002 8.60033C12.3543 9.29881 12.5593 9.98509 12.8136 10.6537L10.9469 11.5337C10.626 11.6809 10.3767 11.9495 10.2536 12.2803C10.1202 12.6049 10.1202 12.969 10.2536 13.2937C12.1725 17.404 15.4766 20.7081 19.5869 22.627C19.9115 22.7603 20.2756 22.7603 20.6002 22.627C20.9311 22.5038 21.1996 22.2545 21.3469 21.9337L22.1869 20.067C22.8748 20.3178 23.5785 20.5227 24.2936 20.6803C24.6402 20.7603 25.0136 20.827 25.3736 20.8803C25.6743 20.9481 25.9423 21.1179 26.132 21.361C26.3216 21.6041 26.4211 21.9054 26.4136 22.2137L26.5336 26.3337ZM18.6669 3.66699C18.3602 3.66699 18.0402 3.66699 17.7336 3.66699C17.3799 3.69705 17.0527 3.86635 16.8239 4.13766C16.5952 4.40896 16.4835 4.76004 16.5136 5.11366C16.5436 5.46728 16.7129 5.79448 16.9842 6.02327C17.2555 6.25207 17.6066 6.36372 17.9602 6.33366H18.6669C20.7886 6.33366 22.8235 7.17651 24.3238 8.67681C25.824 10.1771 26.6669 12.2119 26.6669 14.3337C26.6669 14.5737 26.6669 14.8003 26.6669 15.0403C26.6373 15.3921 26.7485 15.7412 26.9759 16.0111C27.2034 16.2811 27.5286 16.4498 27.8802 16.4803H27.9869C28.3207 16.4817 28.6428 16.3578 28.8897 16.1331C29.1366 15.9085 29.2902 15.5994 29.3202 15.267C29.3202 14.9603 29.3202 14.6403 29.3202 14.3337C29.3202 11.507 28.1983 8.7959 26.2008 6.7959C24.2032 4.79589 21.4936 3.67053 18.6669 3.66699ZM21.3336 14.3337C21.3336 14.6873 21.474 15.0264 21.7241 15.2765C21.9741 15.5265 22.3133 15.667 22.6669 15.667C23.0205 15.667 23.3597 15.5265 23.6097 15.2765C23.8598 15.0264 24.0002 14.6873 24.0002 14.3337C24.0002 12.9192 23.4383 11.5626 22.4381 10.5624C21.4379 9.56223 20.0814 9.00033 18.6669 9.00033C18.3133 9.00033 17.9741 9.1408 17.7241 9.39085C17.474 9.6409 17.3336 9.98004 17.3336 10.3337C17.3336 10.6873 17.474 11.0264 17.7241 11.2765C17.9741 11.5265 18.3133 11.667 18.6669 11.667C19.3741 11.667 20.0524 11.9479 20.5525 12.448C21.0526 12.9481 21.3336 13.6264 21.3336 14.3337Z" fill="white"/>
</svg>
