<svg width="12" height="20" viewBox="0 0 12 20" fill="none" xmlns="http://www.w3.org/2000/svg">
<path d="M5.99985 0.833008C4.85271 0.834446 3.73146 1.17408 2.77633 1.80943C1.82121 2.44479 1.07462 3.34765 0.629937 4.4051C0.185258 5.46254 0.0622326 6.62763 0.276249 7.75463C0.490265 8.88163 1.03182 9.92052 1.83318 10.7413V18.333C1.83361 18.4751 1.87035 18.6146 1.9399 18.7385C2.00946 18.8624 2.10952 18.9664 2.23059 19.0407C2.35165 19.115 2.48971 19.1571 2.63164 19.1631C2.77357 19.169 2.91466 19.1386 3.04152 19.0747L5.99985 17.5997L8.95818 19.0747C9.07429 19.1342 9.20273 19.1656 9.33318 19.1663C9.4892 19.1668 9.64223 19.1235 9.77485 19.0413C9.89494 18.9663 9.99393 18.8619 10.0625 18.7379C10.131 18.614 10.1668 18.4746 10.1665 18.333V10.7413C10.9679 9.92052 11.5094 8.88163 11.7235 7.75463C11.9375 6.62763 11.8144 5.46254 11.3698 4.4051C10.9251 3.34765 10.1785 2.44479 9.22337 1.80943C8.26824 1.17408 7.14699 0.834446 5.99985 0.833008ZM8.49985 16.983L6.37485 15.9247C6.25853 15.8661 6.1301 15.8355 5.99985 15.8355C5.8696 15.8355 5.74117 15.8661 5.62485 15.9247L3.49985 16.983V11.933C4.02728 12.1821 4.58909 12.3506 5.16652 12.433V13.333C5.16652 13.554 5.25431 13.766 5.41059 13.9223C5.56687 14.0785 5.77884 14.1663 5.99985 14.1663C6.22086 14.1663 6.43283 14.0785 6.58911 13.9223C6.74539 13.766 6.83318 13.554 6.83318 13.333V12.433C7.41061 12.3506 7.97242 12.1821 8.49985 11.933V16.983ZM5.99985 10.833C5.17576 10.833 4.37018 10.5886 3.68497 10.1308C2.99977 9.67296 2.46572 9.02221 2.15035 8.26086C1.83499 7.4995 1.75247 6.66172 1.91324 5.85346C2.07402 5.04521 2.47085 4.30278 3.05357 3.72006C3.63629 3.13734 4.37872 2.74051 5.18697 2.57974C5.99523 2.41896 6.833 2.50148 7.59436 2.81684C8.35572 3.13221 9.00647 3.66626 9.46431 4.35147C9.92215 5.03667 10.1665 5.84225 10.1665 6.66634C10.1665 7.77141 9.72753 8.83122 8.94613 9.61262C8.16473 10.394 7.10492 10.833 5.99985 10.833Z" fill="#0092FF"/>
</svg>
