<svg width="30" height="30" viewBox="0 0 30 30" fill="none" xmlns="http://www.w3.org/2000/svg">
<g clip-path="url(#clip0)">
<path d="M18.8298 3.73813C15.5299 2.07067 11.5548 2.70823 8.93853 5.32456C5.8978 8.36523 5.59347 13.2136 8.23066 16.6024C8.32388 16.7221 8.46322 16.7848 8.60408 16.7848C8.70556 16.7848 8.80781 16.7523 8.89412 16.6851C9.10019 16.5247 9.13723 16.2277 8.97691 16.0216C6.63204 13.0086 6.90304 8.69728 9.60721 5.99312C11.934 3.66624 15.4688 3.09917 18.4034 4.582C18.6364 4.69989 18.9208 4.60626 19.0386 4.37323C19.1563 4.14021 19.0629 3.85585 18.8298 3.73813Z" fill="#0092FF"/>
<path d="M22.6047 7.51363C22.4869 7.2806 22.2027 7.18709 21.9695 7.30474C21.7365 7.42246 21.6429 7.70676 21.7606 7.9399C23.2424 10.874 22.675 14.4084 20.3488 16.7346C17.6446 19.4387 13.3333 19.7097 10.3203 17.3649C10.1141 17.2046 9.81718 17.2416 9.65681 17.4476C9.49644 17.6537 9.53353 17.9507 9.7396 18.1111C11.2832 19.3124 13.1296 19.9032 14.97 19.9032C17.1701 19.9032 19.3618 19.0589 21.0175 17.4032C23.6332 14.7875 24.271 10.8132 22.6047 7.51363Z" fill="#0092FF"/>
<path d="M21.3834 5.71405C21.2662 5.58151 21.1432 5.45061 21.0176 5.3251C20.8921 5.19954 20.7612 5.07649 20.6287 4.95936C20.433 4.78639 20.1342 4.80491 19.9614 5.00055C19.7884 5.19614 19.8068 5.49491 20.0024 5.66782C20.1205 5.77212 20.2371 5.8818 20.349 5.99366C20.4608 6.10557 20.5705 6.22212 20.6749 6.34019C20.7682 6.44589 20.8984 6.49985 21.0293 6.49985C21.1406 6.49985 21.2522 6.46077 21.3422 6.38132C21.5379 6.20847 21.5563 5.9097 21.3834 5.71405Z" fill="#0092FF"/>
<path d="M26.1368 12.2116C26.4521 11.6943 26.4521 11.0519 26.1367 10.5348L25.5147 9.51489C25.4328 9.38047 25.4011 9.22087 25.4256 9.06547L25.611 7.88756C25.7055 7.28727 25.4589 6.69236 24.9675 6.33488L24.0036 5.63375C23.8762 5.54099 23.7856 5.4057 23.7485 5.25254L23.4678 4.09244C23.3253 3.50316 22.8706 3.04859 22.2814 2.90597L21.1213 2.62519C20.9681 2.5881 20.8327 2.49751 20.74 2.37007L20.0388 1.40591C19.6814 0.91454 19.0864 0.667802 18.4863 0.762372L17.308 0.947763C17.1526 0.972197 16.9929 0.940556 16.8586 0.858642L15.8385 0.236492C15.3213 -0.07886 14.6789 -0.0788014 14.1618 0.236492L13.1418 0.858466C13.0075 0.940439 12.8479 0.971962 12.6924 0.947587L11.5144 0.762196C10.9143 0.667743 10.3192 0.914365 9.96182 1.40573L9.26069 2.36966C9.16793 2.4971 9.03258 2.58769 8.87936 2.62478L7.71926 2.9055C7.1301 3.048 6.67541 3.50263 6.53279 4.09185L6.25201 5.25201C6.21492 5.40517 6.12439 5.54058 5.99689 5.63322L5.03273 6.33447C4.54136 6.69184 4.2948 7.28668 4.38919 7.88698L4.57458 9.06536C4.59902 9.22081 4.56738 9.38042 4.48546 9.51471L3.86337 10.5349C3.54814 11.052 3.54814 11.6945 3.86343 12.2116L4.4854 13.2316C4.56732 13.366 4.59902 13.5256 4.57453 13.681L4.38913 14.8589C4.29462 15.4592 4.54124 16.0541 5.03261 16.4116L5.99654 17.1127C6.12398 17.2053 6.21457 17.3407 6.25166 17.4939L6.53238 18.654C6.67488 19.2433 7.12951 19.6979 7.71873 19.8405L8.20318 19.9577L4.92462 27.2711C4.85496 27.4265 4.87423 27.6073 4.97519 27.7446C5.07609 27.8818 5.24291 27.9541 5.41212 27.9339L8.05014 27.6185L9.56983 29.7976C9.65877 29.9251 9.80391 29.9999 9.95748 29.9999C9.97219 29.9999 9.98707 29.9992 10.0018 29.9979C10.1714 29.982 10.3194 29.876 10.389 29.7206L13.7374 22.2511L14.1617 22.5098C14.4202 22.6675 14.7101 22.7463 15 22.7463C15.2899 22.7463 15.5798 22.6675 15.8384 22.5098L16.2779 22.2418L19.6305 29.7206C19.7002 29.8761 19.8481 29.982 20.0177 29.9979C20.0325 29.9993 20.0473 30 20.0621 30C20.2156 30 20.3608 29.9251 20.4497 29.7977L21.9694 27.6185L24.6074 27.9339C24.7765 27.954 24.9434 27.8818 25.0443 27.7446C25.1452 27.6074 25.1646 27.4266 25.0949 27.2711L21.8147 19.9537L22.2809 19.8409C22.87 19.6984 23.3247 19.2438 23.4674 18.6546L23.7481 17.4944C23.7852 17.3413 23.8758 17.2059 24.0033 17.1132L24.9674 16.412C25.4588 16.0546 25.7053 15.4598 25.611 14.8595L25.4256 13.6811C25.4011 13.5256 25.4328 13.366 25.5147 13.2317L26.1368 12.2116ZM9.86778 28.572L8.66344 26.845C8.5636 26.7018 8.39285 26.6251 8.21953 26.646L6.12896 26.8959L9.11602 20.2325C9.17063 20.2726 9.21961 20.3207 9.25998 20.3763L9.96124 21.3405C10.0279 21.4321 10.1027 21.5151 10.1844 21.589L8.61211 25.0963C8.50535 25.3346 8.61188 25.6143 8.85012 25.7211C8.91293 25.7493 8.97862 25.7626 9.04319 25.7626C9.22377 25.7626 9.39627 25.6585 9.47485 25.4831L11.0415 21.9883C11.1957 22.0094 11.3544 22.0091 11.5137 21.984L12.6921 21.7986C12.7626 21.7875 12.8339 21.7885 12.9033 21.8L9.86778 28.572ZM23.8907 26.8958L21.8001 26.646C21.6266 26.6252 21.456 26.7018 21.3562 26.845L20.1518 28.572L17.115 21.7974C17.1786 21.7887 17.2436 21.7887 17.3079 21.7988L18.4858 21.9842C18.6516 22.0103 18.8168 22.0094 18.9768 21.9856L20.5446 25.4832C20.6233 25.6587 20.7957 25.7627 20.9763 25.7627C21.0409 25.7627 21.1066 25.7494 21.1694 25.7212C21.4076 25.6144 21.5142 25.3346 21.4074 25.0964L19.8291 21.5758C19.9053 21.5051 19.9756 21.4269 20.0384 21.3407L20.7395 20.3767C20.7837 20.316 20.8378 20.2639 20.8987 20.2217L23.8907 26.8958ZM25.3295 11.7192L24.7074 12.7394C24.509 13.0649 24.4323 13.4515 24.4915 13.828L24.6769 15.0063C24.7159 15.2541 24.614 15.4997 24.4112 15.6472L23.447 16.3485C23.1384 16.573 22.9189 16.901 22.8291 17.272L22.5484 18.4321C22.4895 18.6753 22.3019 18.863 22.0586 18.9219L20.8984 19.2026C20.5274 19.2924 20.1994 19.5119 19.9749 19.8206L19.2737 20.7845C19.1262 20.9874 18.8807 21.0891 18.6328 21.0501L17.4548 20.8647C17.0782 20.8055 16.6916 20.8821 16.3661 21.0806L15.3461 21.7025C15.1327 21.8326 14.8674 21.8326 14.654 21.7025L13.6338 21.0805C13.3801 20.9258 13.0893 20.8451 12.795 20.8451C12.7117 20.8451 12.6281 20.8516 12.5452 20.8646L11.3668 21.05C11.119 21.0891 10.8735 20.9872 10.7259 20.7844L10.0246 19.8202C9.8001 19.5116 9.47215 19.2921 9.10119 19.2023L7.94104 18.9215C7.69781 18.8627 7.51014 18.675 7.45125 18.4318L7.17053 17.2717C7.08076 16.9006 6.86133 16.5726 6.5526 16.348L5.58873 15.6469C5.38587 15.4993 5.2841 15.2537 5.32312 15.0059L5.50851 13.8279C5.56775 13.4513 5.49111 13.0647 5.29265 12.7393L4.67068 11.7192C4.54054 11.5057 4.54054 11.2405 4.67068 11.0271L5.29277 10.0069C5.49117 9.68147 5.56787 9.29487 5.50863 8.91834L5.32324 7.74002C5.28427 7.49223 5.38611 7.24666 5.5889 7.09912L6.55312 6.39781C6.86174 6.17328 7.08123 5.84533 7.171 5.47437L7.45178 4.31421C7.51066 4.07099 7.69828 3.88332 7.94156 3.82443L9.10172 3.54371C9.47274 3.45394 9.80075 3.23445 10.0252 2.92577L10.7264 1.96185C10.8739 1.759 11.1194 1.6571 11.3673 1.69618L12.5453 1.88157C12.9219 1.94093 13.3086 1.86417 13.634 1.66571L14.654 1.04374C14.8674 0.913661 15.1327 0.913661 15.3461 1.04374L16.3662 1.66577C16.6917 1.86429 17.0784 1.94099 17.4549 1.88169L18.6332 1.6963C18.881 1.65745 19.1266 1.75917 19.2741 1.96196L19.9755 2.92613C20.2 3.23474 20.5279 3.45423 20.8989 3.544L22.059 3.82478C22.3023 3.88367 22.4899 4.07128 22.5488 4.31457L22.8296 5.47467C22.9193 5.84568 23.1388 6.17375 23.4475 6.39828L24.4114 7.09942C24.6143 7.24695 24.716 7.49258 24.677 7.74037L24.4916 8.91834C24.4324 9.29493 24.509 9.68153 24.7075 10.007L25.3295 11.0271C25.4597 11.2405 25.4597 11.5058 25.3295 11.7192Z" fill="#0092FF"/>
<path d="M20.5323 9.90229C20.4281 9.58155 20.1553 9.3576 19.8204 9.31788L16.9756 8.98055L15.7757 6.37928C15.6345 6.07307 15.3372 5.88281 15 5.88281C14.6627 5.88281 14.3654 6.07307 14.2242 6.37928L13.0243 8.98061L10.1795 9.31794C9.84457 9.35766 9.57176 9.58161 9.46764 9.90235C9.36346 10.2229 9.45252 10.5645 9.70002 10.7934L11.8032 12.7384L11.245 15.5482C11.1793 15.879 11.308 16.2076 11.5808 16.4058C11.7314 16.5151 11.906 16.5705 12.0818 16.5705C12.2247 16.5705 12.3683 16.5339 12.5002 16.4601L14.9999 15.061L17.4996 16.4601C17.7939 16.6249 18.1462 16.6041 18.419 16.4059C18.6919 16.2076 18.8206 15.879 18.7548 15.5482L18.1965 12.7385L20.2998 10.7934C20.5474 10.5645 20.6365 10.223 20.5323 9.90229ZM17.3604 12.224C17.2396 12.3356 17.1856 12.5019 17.2176 12.6632L17.7889 15.5384L15.2308 14.1066C15.1591 14.0664 15.0795 14.0463 14.9999 14.0463C14.9203 14.0463 14.8408 14.0664 14.769 14.1066L12.2109 15.5384L12.7822 12.6632C12.8143 12.5019 12.7602 12.3356 12.6394 12.224L10.4872 10.2335L13.3985 9.88835C13.5617 9.86901 13.7032 9.76618 13.7721 9.61694L15 6.95496L16.2278 9.61694C16.2967 9.76618 16.4381 9.86901 16.6014 9.88835L19.5126 10.2335L17.3604 12.224Z" fill="#0092FF"/>
</g>
<defs>
<clipPath id="clip0">
<rect width="30" height="30" fill="white"/>
</clipPath>
</defs>
</svg>
